<svg xmlns="http://www.w3.org/2000/svg" xmlns:xlink="http://www.w3.org/1999/xlink" version="1.1" x="0px" y="0px" viewBox="0 0 100 125" enable-background="new 0 0 100 100" xml:space="preserve"><path fill="#4f8a83" d="M55.447,54.227c-3.206-1.13-6.723,0.552-7.853,3.758c-1.131,3.204,0.552,6.721,3.759,7.852  c3.203,1.13,6.721-0.553,7.851-3.758C60.336,58.874,58.652,55.357,55.447,54.227z"/><rect x="39.223" y="80.915" transform="matrix(-0.9431 -0.3326 0.3326 -0.9431 61.2287 174.8818)" fill="#4f8a83" width="12.715" height="2.573"/><rect x="40.566" y="77.11" transform="matrix(-0.9431 -0.3326 0.3326 -0.9431 65.0969 167.9366)" fill="#4f8a83" width="12.713" height="2.573"/><path fill="#4f8a83" d="M75.456,17.317l4.64-13.153L67.66-0.222L63.02,12.931l1.58,0.557l-9.765,27.687  c-1.907-0.571-4.059-1.04-6.229-1.04c-2.961,0-5.397,0.89-7.242,2.65c-2.494,2.378-2.241,6.399-1.994,10.281  c0.164,2.597,0.332,5.285-0.35,7.219c-1.404,3.978-4.71,6.733-7.909,9.401c-3.127,2.606-6.082,5.071-7.317,8.577  c-0.771,2.183-0.528,4.676,0.704,7.209c2.525,5.197,8.852,10.143,16.119,12.604c3.302,1.12,6.844,1.712,10.245,1.712  c7.321,0,12.611-2.61,14.155-6.986c1.237-3.506,0.481-7.278-0.318-11.27c-0.817-4.082-1.662-8.303-0.261-12.284  c0.676-1.909,2.299-3.9,3.867-5.828c2.446-3,4.977-6.106,4.524-9.537c-0.677-5.157-4.943-7.844-8.721-9.431L73.88,16.76  L75.456,17.317z M69.229,3.063l7.584,2.674l-2.928,8.294l-7.583-2.674L69.229,3.063z M70.278,54.219  c0.308,2.33-1.77,4.879-3.966,7.574c-1.711,2.099-3.478,4.267-4.298,6.6c-1.642,4.647-0.684,9.429,0.163,13.644  c0.727,3.637,1.415,7.071,0.412,9.911c-1.146,3.249-5.639,5.269-11.728,5.269c-3.124,0-6.38-0.545-9.418-1.574  c-6.546-2.218-12.425-6.759-14.631-11.291c-0.938-1.931-1.137-3.69-0.593-5.231c1.002-2.84,3.691-5.082,6.541-7.458  c3.302-2.754,7.047-5.873,8.688-10.521c0.856-2.429,0.669-5.381,0.491-8.232c-0.219-3.451-0.425-6.709,1.204-8.261  c1.367-1.304,3.153-1.938,5.463-1.938c3.245,0,6.661,1.267,8.921,2.104c0.376,0.142,0.721,0.269,1.025,0.377l0.152,0.053  c0.307,0.109,0.653,0.225,1.03,0.349C63.415,46.82,69.577,48.881,70.278,54.219z M61.702,43.54  c-0.404-0.139-0.797-0.271-1.152-0.392c-0.364-0.12-0.695-0.23-0.993-0.336l-0.153-0.053c-0.29-0.102-0.619-0.224-0.982-0.36  c-0.354-0.13-0.74-0.271-1.144-0.418l9.749-27.638l4.424,1.562L61.702,43.54z"/><polygon fill="#4f8a83" points="77.521,15.376 79.585,16.101 80.442,13.675 78.378,12.95 "/><rect x="79.087" y="9.836" transform="matrix(-0.9431 -0.3324 0.3324 -0.9431 152.1075 48.2652)" fill="#4f8a83" width="2.189" height="2.576"/><rect x="80.096" y="6.628" transform="matrix(0.3325 -0.9431 0.9431 0.3325 47.0387 81.9046)" fill="#4f8a83" width="2.573" height="2.186"/><rect x="60.933" y="7.259" transform="matrix(0.9435 0.3312 -0.3312 0.9435 6.3324 -20.0638)" fill="#4f8a83" width="2.189" height="2.573"/><rect x="62.132" y="3.858" transform="matrix(0.9432 0.3322 -0.3322 0.9432 5.3007 -20.7141)" fill="#4f8a83" width="2.19" height="2.573"/><rect x="63.332" y="0.456" transform="matrix(0.9431 0.3324 -0.3324 0.9431 4.2434 -21.3186)" fill="#4f8a83" width="2.19" height="2.573"/></svg>
