<svg xmlns="http://www.w3.org/2000/svg" xmlns:xlink="http://www.w3.org/1999/xlink" version="1.1" x="0px" y="0px" viewBox="0 0 100 125" enable-background="new 0 0 100 100" xml:space="preserve"><g><g><path fill="none" d="M39.431,36.25l1.156,1.156l2.201-11.639c0.359-1.896-0.892-3.73-2.787-4.088    c-0.219-0.041-0.436-0.061-0.651-0.061c-1.648,0-3.119,1.172-3.437,2.849l-1.9,10.043c0.333-0.054,0.672-0.084,1.016-0.084    C36.692,34.427,38.255,35.075,39.431,36.25z"/><path fill="none" d="M48.854,41.653L48.854,41.653l2.898-15.324c0.174-0.918-0.021-1.849-0.547-2.621    c-0.526-0.772-1.322-1.293-2.24-1.467c-0.219-0.041-0.439-0.062-0.658-0.062c-0.696,0-1.376,0.208-1.964,0.609    c-0.772,0.526-1.293,1.322-1.467,2.24l-2.651,14.016l4.967,4.967C48.029,43.517,48.659,42.682,48.854,41.653z"/><path fill="none" d="M65.856,28.838c-0.219-0.041-0.439-0.062-0.658-0.062c-0.696,0-1.376,0.208-1.964,0.609    c-0.772,0.527-1.293,1.322-1.467,2.24l-2.277,12.04c-0.174,0.918,0.021,1.849,0.547,2.621c0.527,0.772,1.322,1.293,2.24,1.467    c1.894,0.358,3.73-0.892,4.088-2.788l2.277-12.04C69.002,31.03,67.752,29.196,65.856,28.838z"/><path fill="none" d="M57.514,24.993c-0.219-0.041-0.439-0.062-0.658-0.062c-0.696,0-1.376,0.208-1.964,0.609    c-0.772,0.526-1.293,1.322-1.467,2.24l-2.692,14.229c-0.359,1.895,0.892,3.729,2.788,4.088c0.918,0.174,1.849-0.02,2.621-0.547    c0.772-0.526,1.293-1.322,1.467-2.24l2.691-14.229C60.66,27.185,59.409,25.351,57.514,24.993z"/></g><g><path fill="#4f8a83" d="M66.212,26.957c-1.391-0.263-2.799,0.021-3.979,0.797    c-0.287-2.266-2.001-4.195-4.364-4.642c-1.421-0.268-2.861,0.032-4.055,0.846c-0.103,0.07-0.201,0.144-0.298,0.22    c-0.158-0.544-0.401-1.066-0.729-1.548c-0.815-1.195-2.046-2-3.466-2.269c-1.42-0.268-2.861,0.032-4.055,0.846    c-0.483,0.329-0.901,0.727-1.247,1.177c-0.764-1.303-2.064-2.283-3.662-2.585c-2.545-0.481-5.016,0.912-5.988,3.205l-17.629-4.642    c-0.502-0.132-1.037-0.154-1.548-0.063l-9.372,1.668c-0.362,0.064-0.655,0.331-0.754,0.685c-0.099,0.354,0.014,0.734,0.29,0.976    l7.228,6.354c0.418,0.367,0.923,0.636,1.461,0.778l18.202,4.793l-0.322,1.703c-0.468,0.27-0.904,0.602-1.296,0.995l-7.169,7.169    c-2.427,2.427-2.427,6.375,0,8.802l9.669,9.669l-0.017,18.918c0.005,0.525,0.432,0.948,0.957,0.948h27.082    c0.526,0,0.953-0.424,0.957-0.95l0.132-17.571c0.717-0.758,2.617-2.914,4.036-5.865c2.491-5.182,1.377-9.009,1.05-9.904    c0.446-0.621,0.768-1.346,0.919-2.145l2.277-12.04C71.079,30.349,69.144,27.512,66.212,26.957z M53.426,27.78    c0.174-0.918,0.694-1.714,1.467-2.24c0.588-0.401,1.268-0.609,1.964-0.609c0.218,0,0.438,0.021,0.658,0.062    c1.896,0.359,3.146,2.192,2.788,4.088L57.61,43.309c-0.174,0.918-0.695,1.714-1.467,2.24c-0.772,0.527-1.703,0.721-2.621,0.547    c-1.896-0.359-3.146-2.192-2.788-4.088L53.426,27.78z M44.877,25.029c0.174-0.918,0.695-1.714,1.467-2.24    c0.588-0.401,1.268-0.609,1.964-0.609c0.218,0,0.438,0.021,0.658,0.062c0.918,0.174,1.714,0.695,2.24,1.467    c0.527,0.772,0.721,1.703,0.547,2.621l-2.898,15.324v0c-0.194,1.028-0.824,1.863-1.661,2.358l-4.967-4.967L44.877,25.029z     M35.913,24.468c0.317-1.677,1.789-2.849,3.437-2.849c0.215,0,0.433,0.02,0.651,0.061c1.896,0.359,3.146,2.192,2.787,4.088    l-2.201,11.639l-1.156-1.156c-1.176-1.176-2.739-1.823-4.401-1.823c-0.344,0-0.683,0.029-1.016,0.084L35.913,24.468z     M14.555,26.914l-0.023-0.006c-0.252-0.066-0.489-0.192-0.685-0.364l-4.185-3.678l0.453-1.72l5.41-0.963    c0.24-0.043,0.491-0.033,0.726,0.03l0.145,0.038l0.86,1.475l-1.963,1.145c-0.405,0.236-0.542,0.756-0.306,1.161l1.144,1.963    L14.555,26.914z M16.876,27.526l0.845-0.493c0.405-0.236,0.542-0.756,0.306-1.161l-1.144-1.963l1.963-1.145    c0.405-0.236,0.542-0.756,0.306-1.161l-0.433-0.742l15.173,3.995l-1.288,6.809L16.876,27.526z M64.552,56.541    c-1.592,3.312-3.91,5.594-3.933,5.616c-0.184,0.179-0.288,0.423-0.29,0.679l-0.128,17.006H35.017l0.022-18.361    c-0.002-0.251-0.103-0.49-0.28-0.668l-9.946-9.946c-1.68-1.681-1.68-4.415,0-6.096l6.55-6.55l0.618-0.618    c0.47-0.47,1.03-0.813,1.64-1.023c0.447-0.154,0.92-0.239,1.407-0.239c1.151,0,2.234,0.448,3.048,1.262    c2.181,2.181,8.028,8.028,9.946,9.945c0.011,0.011,0.022,0.021,0.033,0.031c1.402,1.275,2.058,2.611,1.8,3.666    c-0.185,0.755-0.843,1.317-1.854,1.583c-3.965,1.043-9.187-2.643-12.456-6.116c-0.362-0.385-0.968-0.403-1.353-0.041    c-0.385,0.362-0.403,0.968-0.041,1.353c5.8,6.163,11.209,7.479,14.337,6.655c1.696-0.446,2.871-1.532,3.226-2.979    c0.429-1.752-0.429-3.764-2.354-5.522l-0.787-0.787c0.23-0.165,0.448-0.348,0.65-0.548c0.697,1.572,2.129,2.789,3.943,3.133    c0.339,0.064,0.676,0.095,1.008,0.095c1.449,0,2.808-0.587,3.803-1.569c0.132,0.298,0.291,0.586,0.479,0.861    c0.815,1.195,2.046,2,3.466,2.269c0.339,0.064,0.676,0.095,1.008,0.095c1.017,0,1.989-0.293,2.823-0.805    C66.037,50.256,66.254,53.003,64.552,56.541z M68.644,32.926l-2.277,12.04c-0.359,1.896-2.194,3.145-4.088,2.788    c-0.918-0.174-1.714-0.694-2.24-1.467c-0.526-0.772-0.721-1.703-0.547-2.621l2.277-12.04c0.174-0.918,0.694-1.714,1.467-2.24    c0.588-0.401,1.267-0.609,1.964-0.609c0.218,0,0.439,0.021,0.658,0.062C67.752,29.196,69.002,31.03,68.644,32.926z"/><path fill="#4f8a83" d="M83.15,43.689l-3.16-0.832c-0.256-0.067-0.517,0.085-0.585,0.341    c-0.067,0.256,0.085,0.517,0.341,0.585l3.16,0.832c0.041,0.011,0.082,0.016,0.122,0.016c0.212,0,0.406-0.142,0.462-0.357    C83.558,44.018,83.406,43.756,83.15,43.689z"/><path fill="#4f8a83" d="M80.427,41.197l3.16,0.832c0.041,0.011,0.082,0.016,0.122,0.016    c0.212,0,0.406-0.142,0.462-0.357c0.067-0.256-0.085-0.517-0.341-0.585l-3.16-0.832c-0.256-0.067-0.517,0.085-0.585,0.341    C80.019,40.868,80.172,41.13,80.427,41.197z"/><path fill="#4f8a83" d="M83.491,42.396l-3.16-0.832c-0.256-0.067-0.517,0.085-0.585,0.341    c-0.067,0.256,0.085,0.517,0.341,0.585l3.16,0.832c0.041,0.011,0.082,0.016,0.122,0.016c0.212,0,0.406-0.142,0.462-0.357    C83.899,42.725,83.746,42.463,83.491,42.396z"/><path fill="#4f8a83" d="M81.108,38.611l3.16,0.832c0.041,0.011,0.082,0.016,0.122,0.016    c0.212,0,0.406-0.142,0.462-0.357c0.067-0.256-0.085-0.517-0.341-0.585l-3.16-0.832c-0.256-0.067-0.517,0.085-0.585,0.341    C80.7,38.282,80.853,38.544,81.108,38.611z"/><path fill="#4f8a83" d="M80.768,39.904l3.16,0.832c0.041,0.011,0.082,0.016,0.122,0.016    c0.212,0,0.406-0.142,0.462-0.357c0.067-0.256-0.085-0.517-0.341-0.585l-3.16-0.832c-0.256-0.067-0.517,0.085-0.585,0.341    C80.359,39.575,80.512,39.837,80.768,39.904z"/></g><path fill="#4f8a83" d="M92.468,38.303l-22.556-5.939l-0.376,1.88l3.832,1.009l-1.76,6.685l-3.429-0.903   l-0.376,1.88l21.927,5.774c0.16,0.043,0.325,0.065,0.495,0.065c0.444,0,0.921-0.148,1.422-0.444   c1.477-0.869,2.99-2.902,3.259-4.006C95.156,43.275,94.752,38.948,92.468,38.303z M73.458,42.425l1.76-6.685l1.046,0.275   l-1.76,6.685L73.458,42.425z M75.429,42.944l1.76-6.685l0.429,0.113l-1.76,6.685L75.429,42.944z M76.783,43.3l1.76-6.685   l0.429,0.113l-1.76,6.685L76.783,43.3z M84.315,45.284l-6.178-1.627l1.76-6.685l6.178,1.627L84.315,45.284z M91.546,41.682   l-0.879,3.338c-0.057,0.215-0.25,0.357-0.462,0.357c-0.04,0-0.081-0.005-0.122-0.016c-0.256-0.067-0.408-0.329-0.341-0.585   l0.879-3.338c0.067-0.256,0.328-0.407,0.585-0.341C91.461,41.165,91.613,41.427,91.546,41.682z"/></g></svg>
