<?xml version="1.0" encoding="utf-8"?><!DOCTYPE svg PUBLIC "-//W3C//DTD SVG 1.1//EN" "http://www.w3.org/Graphics/SVG/1.1/DTD/svg11.dtd"><svg version="1.1" xmlns="http://www.w3.org/2000/svg" xmlns:xlink="http://www.w3.org/1999/xlink" x="0px" y="0px" viewBox="0 0 100 120.43125" enable-background="new 0 0 100 96.345" xml:space="preserve"><polygon opacity="0.91" fill="#010101" enable-background="new    " points="100,35.651 87.657,41.201 87.505,39.478 84.225,42.678 
	83.768,41.857 79.803,44.974 79.573,43.169 74.77,47.518 74.388,46.124 70.956,50.634 70.194,49.651 67.144,53.589 65.999,52.03 
	63.56,56.625 62.645,55.64 60.128,60.235 59.518,59.332 55.324,65.895 52.045,72.212 49.952,77.449 48.242,80.019 48.691,76.045 
	50.218,71.626 52.938,67.257 52.405,66.165 54.86,62.429 53.419,62.314 56.781,55.991 56.034,54.898 57.101,52.542 56.941,50.989 
	55.446,51.851 58.275,46.966 56.088,46.85 58.275,43.747 59.129,40.929 56.354,41.907 58.649,35.641 56.461,36.503 57.422,33.571 
	58.382,30.237 55.981,31.157 55.287,31.559 56.301,28.627 56.835,25.236 55.341,25.753 54.166,26.155 55.127,24.086 55.181,20.867 
	53.633,21.269 54.006,20.062 53.633,16.843 51.284,18.28 51.338,13.221 50.751,13.451 50.378,8.967 49.256,1.035 48.509,0 
	48.137,4.713 47.175,13.049 46.001,12.819 46.108,16.785 45.042,15.866 45.042,22.477 43.119,20.982 43.333,26.788 44.133,28.57 
	41.999,27.018 41.892,31.214 42.853,33.744 40.719,32.191 40.719,34.606 42.373,38.63 40.558,38.055 41.359,42.827 42.373,45.01 
	40.345,45.01 42.586,49.208 42.319,50.529 40.558,50.012 42.479,55.416 41.519,55.186 41.412,57.657 43.173,61.394 41.999,61.394 
	41.892,62.486 43.814,66.741 42.426,66.741 42.959,68.522 46.264,76.364 46.642,79.674 44.741,76.311 44.774,76.283 41.945,69.154 
	40.078,63.694 39.384,64.211 39.01,61.106 38.104,61.279 36.929,57.887 36.022,58.634 35.648,56.507 33.994,53.749 33.354,54.438 
	32.66,51.851 31.059,50.069 30.525,51.449 29.778,48.919 28.391,47.08 27.644,48.862 27.217,45.643 25.456,43.688 24.495,45.24 
	23.908,43.057 22.093,40.125 21.24,40.642 20.812,42.539 19.639,39.665 16.65,36.963 16.597,39.147 13.342,36.273 9.286,33.801 
	2.668,28.685 0,26.96 1.815,30.179 11.901,42.654 10.513,43.517 14.196,46.736 11.847,47.828 16.543,51.449 14.889,52.829 
	19.746,55.818 17.931,56.451 22.2,58.98 21.293,59.669 22.947,61.222 24.442,61.452 24.762,61.912 23.641,62.314 25.562,64.211 
	27.27,65.475 26.416,66.108 28.711,68.062 30.418,68.235 30.739,68.81 29.405,69.097 32.393,71.282 33.781,71.454 32.82,72.316 
	37.783,74.443 37.303,75.249 39.597,75.305 43.03,77.396 45.521,80.479 45.416,81.361 45.468,80.767 43.066,79.961 40.558,79.272 
	37.089,79.099 36.823,78.754 33.888,78.525 33.14,77.892 31.112,77.72 28.871,76.972 27.11,77.432 25.616,76.8 24.015,77.662 
	20.973,77.03 20.333,77.72 17.824,77.088 17.718,77.778 14.676,77.145 14.623,77.834 12.381,77.834 11.474,77.432 4.43,77.49 
	2.562,78.294 3.736,79.445 9.82,80.365 12.647,81.399 15.209,81.686 14.782,82.664 18.145,82.779 17.344,83.813 21.4,83.986 
	21.026,85.308 24.655,85.193 24.495,86.342 28.604,85.71 28.284,86.86 31.806,85.94 31.646,86.86 35.382,85.193 35.008,86.342 
	38.05,84.791 38.53,85.135 41.305,83.526 43.066,82.606 44.08,82.031 45.342,81.975 45.308,82.261 45.373,82.421 42.906,85.135 
	41.946,86.572 40.237,89.561 38.797,92.723 38.744,93.988 40.719,91.574 43.814,88.354 45.734,85.768 46.408,84.94 46.433,85 
	46.642,89.677 46.909,93.183 47.496,96.345 49.737,93.586 49.364,90.71 49.043,88.469 48.937,86.458 48.881,85.584 49.099,85.615 
	49.097,85.71 53.26,93.643 54.219,94.678 54.219,91.114 52.992,87.205 51.605,84.446 49.692,82.248 49.722,81.942 51.765,82.721 
	54.38,83.986 57.582,86.228 58.862,86.629 58.97,85.422 61.531,86.917 62.759,86.745 62.598,85.595 66.547,85.71 66.547,84.675 
	67.401,84.273 69.056,84.848 70.229,84.043 69.429,83.066 72.524,82.894 72.204,81.859 73.805,81.801 73.858,81.399 75.992,81.399 
	75.3,80.421 76.046,80.077 80.582,77.605 85.651,75.132 83.997,74.672 75.939,75.42 72.897,75.996 70.442,76.8 66.867,77.203 
	65.693,77.662 62.385,78.007 60.09,78.065 58.382,78.927 58.062,77.95 53.26,79.214 50.018,80.258 50.156,79.668 53.951,77.627 
	55.4,77.708 56.087,76.478 59.976,75.823 60.052,74.755 65.466,72.212 63.941,71.883 68.517,70.079 67.906,69.586 71.489,68.521 
	70.271,67.618 74.312,65.321 73.625,64.582 76.98,63.024 75.303,61.875 79.727,60.727 78.658,58.84 83.387,57.116 81.708,55.066 
	86.208,52.769 84.683,51.209 88.877,48.256 87.505,47.025 90.402,46.288 89.486,44.646 95.623,39.719 "/><text x="0" y="111.345" fill="#000000" font-size="5px" font-weight="bold" font-family="'Helvetica Neue', Helvetica, Arial-Unicode, Arial, Sans-serif">Created by Gareth</text><text x="0" y="116.345" fill="#000000" font-size="5px" font-weight="bold" font-family="'Helvetica Neue', Helvetica, Arial-Unicode, Arial, Sans-serif">from the Noun Project</text></svg>